<svg width="162" height="47" viewBox="0 0 162 47" fill="none" xmlns="http://www.w3.org/2000/svg">
<g filter="url(#filter0_di_246_92)">
<path d="M27.5464 6.86135V22.6167C27.5464 25.0558 26.8543 26.9346 25.4699 28.2531C24.1075 29.5715 22.2617 30.2307 19.9324 30.2307C17.4933 30.2307 15.5376 29.5385 14.0654 28.1542C12.5931 26.7698 11.857 24.8031 11.857 22.2542H17.4604C17.4604 23.221 17.6581 23.9571 18.0537 24.4625C18.4492 24.946 19.0205 25.1877 19.7676 25.1877C20.4488 25.1877 20.9762 24.9679 21.3498 24.5285C21.7233 24.089 21.9101 23.4517 21.9101 22.6167V6.86135H27.5464ZM40.4713 30.2637C38.6694 30.2637 37.0433 29.8791 35.5931 29.1101C34.1647 28.341 33.0331 27.2423 32.1981 25.8139C31.385 24.3856 30.9785 22.7156 30.9785 20.8039C30.9785 18.9141 31.396 17.2551 32.231 15.8268C33.066 14.3765 34.2087 13.2668 35.659 12.4977C37.1093 11.7286 38.7353 11.3441 40.5372 11.3441C42.3391 11.3441 43.9652 11.7286 45.4154 12.4977C46.8657 13.2668 48.0084 14.3765 48.8434 15.8268C49.6784 17.2551 50.0959 18.9141 50.0959 20.8039C50.0959 22.6936 49.6674 24.3637 48.8104 25.8139C47.9754 27.2423 46.8218 28.341 45.3495 29.1101C43.8992 29.8791 42.2732 30.2637 40.4713 30.2637ZM40.4713 25.3855C41.548 25.3855 42.4599 24.9899 43.2071 24.1989C43.9761 23.4078 44.3607 22.2761 44.3607 20.8039C44.3607 19.3316 43.9871 18.1999 43.24 17.4089C42.5149 16.6178 41.6139 16.2223 40.5372 16.2223C39.4385 16.2223 38.5266 16.6178 37.8014 17.4089C37.0763 18.178 36.7137 19.3096 36.7137 20.8039C36.7137 22.2761 37.0653 23.4078 37.7685 24.1989C38.4936 24.9899 39.3946 25.3855 40.4713 25.3855ZM58.7224 14.2117C59.2498 13.3547 60.0079 12.6625 60.9967 12.1351C61.9856 11.6077 63.1172 11.3441 64.3917 11.3441C65.9079 11.3441 67.2813 11.7286 68.5119 12.4977C69.7424 13.2668 70.7093 14.3655 71.4124 15.7938C72.1376 17.2221 72.5001 18.8811 72.5001 20.7709C72.5001 22.6607 72.1376 24.3307 71.4124 25.781C70.7093 27.2093 69.7424 28.319 68.5119 29.1101C67.2813 29.8791 65.9079 30.2637 64.3917 30.2637C63.0953 30.2637 61.9636 30.011 60.9967 29.5056C60.0299 28.9782 59.2718 28.286 58.7224 27.429V30H53.0861V5.60883H58.7224V14.2117ZM66.7649 20.7709C66.7649 19.3646 66.3694 18.2659 65.5783 17.4748C64.8092 16.6618 63.8534 16.2552 62.7107 16.2552C61.59 16.2552 60.6342 16.6618 59.8431 17.4748C59.074 18.2878 58.6895 19.3975 58.6895 20.8039C58.6895 22.2102 59.074 23.3199 59.8431 24.1329C60.6342 24.946 61.59 25.3525 62.7107 25.3525C63.8314 25.3525 64.7873 24.946 65.5783 24.1329C66.3694 23.2979 66.7649 22.1772 66.7649 20.7709ZM93.0913 14.3105C93.0913 15.651 92.7836 16.8815 92.1684 18.0022C91.5531 19.1009 90.6082 19.9908 89.3337 20.672C88.0592 21.3532 86.4771 21.6938 84.5873 21.6938H81.0934V30H75.4571V6.86135H84.5873C86.4331 6.86135 87.9933 7.17997 89.2678 7.81722C90.5423 8.45447 91.4981 9.33343 92.1354 10.4541C92.7726 11.5748 93.0913 12.8603 93.0913 14.3105ZM84.1588 17.2111C85.2356 17.2111 86.0376 16.9584 86.565 16.453C87.0924 15.9476 87.356 15.2335 87.356 14.3105C87.356 13.3876 87.0924 12.6735 86.565 12.1681C86.0376 11.6627 85.2356 11.41 84.1588 11.41H81.0934V17.2111H84.1588ZM94.9049 20.7709C94.9049 18.8811 95.2565 17.2221 95.9596 15.7938C96.6848 14.3655 97.6626 13.2668 98.8932 12.4977C100.124 11.7286 101.497 11.3441 103.013 11.3441C104.31 11.3441 105.441 11.6077 106.408 12.1351C107.397 12.6625 108.155 13.3547 108.683 14.2117V11.6077H114.319V30H108.683V27.3961C108.133 28.2531 107.364 28.9452 106.375 29.4726C105.408 30 104.277 30.2637 102.98 30.2637C101.486 30.2637 100.124 29.8791 98.8932 29.1101C97.6626 28.319 96.6848 27.2093 95.9596 25.781C95.2565 24.3307 94.9049 22.6607 94.9049 20.7709ZM108.683 20.8039C108.683 19.3975 108.287 18.2878 107.496 17.4748C106.727 16.6618 105.782 16.2552 104.661 16.2552C103.541 16.2552 102.585 16.6618 101.794 17.4748C101.025 18.2659 100.64 19.3646 100.64 20.7709C100.64 22.1772 101.025 23.2979 101.794 24.1329C102.585 24.946 103.541 25.3525 104.661 25.3525C105.782 25.3525 106.727 24.946 107.496 24.1329C108.287 23.3199 108.683 22.2102 108.683 20.8039ZM128.647 25.2206V30H125.78C123.736 30 122.143 29.5056 121.001 28.5168C119.858 27.5059 119.287 25.8689 119.287 23.6056V16.2882H117.045V11.6077H119.287V7.12504H124.923V11.6077H128.615V16.2882H124.923V23.6715C124.923 24.2208 125.055 24.6164 125.318 24.8581C125.582 25.0998 126.022 25.2206 126.637 25.2206H128.647ZM143.093 11.41C145.202 11.41 146.894 12.1131 148.169 13.5195C149.443 14.9038 150.08 16.8156 150.08 19.2547V30H144.477V20.0128C144.477 18.7823 144.158 17.8264 143.521 17.1452C142.884 16.464 142.027 16.1234 140.95 16.1234C139.873 16.1234 139.016 16.464 138.379 17.1452C137.742 17.8264 137.423 18.7823 137.423 20.0128V30H131.787V5.60883H137.423V14.0798C137.995 13.2668 138.775 12.6185 139.764 12.1351C140.752 11.6517 141.862 11.41 143.093 11.41Z" fill="white"/>
</g>
<defs>
<filter id="filter0_di_246_92" x="0.869974" y="0.115327" width="160.197" height="46.6289" filterUnits="userSpaceOnUse" color-interpolation-filters="sRGB">
<feFlood flood-opacity="0" result="BackgroundImageFix"/>
<feColorMatrix in="SourceAlpha" type="matrix" values="0 0 0 0 0 0 0 0 0 0 0 0 0 0 0 0 0 0 127 0" result="hardAlpha"/>
<feOffset dy="5.49351"/>
<feGaussianBlur stdDeviation="5.49351"/>
<feComposite in2="hardAlpha" operator="out"/>
<feColorMatrix type="matrix" values="0 0 0 0 0 0 0 0 0 0 0 0 0 0 0 0 0 0 0.2 0"/>
<feBlend mode="normal" in2="BackgroundImageFix" result="effect1_dropShadow_246_92"/>
<feBlend mode="normal" in="SourceGraphic" in2="effect1_dropShadow_246_92" result="shape"/>
<feColorMatrix in="SourceAlpha" type="matrix" values="0 0 0 0 0 0 0 0 0 0 0 0 0 0 0 0 0 0 127 0" result="hardAlpha"/>
<feOffset dy="10.987"/>
<feGaussianBlur stdDeviation="5.49351"/>
<feComposite in2="hardAlpha" operator="arithmetic" k2="-1" k3="1"/>
<feColorMatrix type="matrix" values="0 0 0 0 0 0 0 0 0 0 0 0 0 0 0 0 0 0 0.25 0"/>
<feBlend mode="normal" in2="shape" result="effect2_innerShadow_246_92"/>
</filter>
</defs>
</svg>
